<svg width="81" height="18" viewBox="0 0 81 18" fill="none" xmlns="http://www.w3.org/2000/svg">
<path d="M51.9714 7.72117C51.6229 5.52036 49.8256 3.86976 47.6064 3.7047C46.3043 3.57632 45.0388 4.12652 44.2318 5.1719C44.1952 5.22692 44.1768 5.31862 44.1035 5.30028C44.0301 5.28194 44.0668 5.1719 44.0668 5.09854C44.0668 4.60336 44.1401 4.10818 44.1585 3.613C44.1585 2.40255 44.1585 1.21045 44.1585 0H42.0127V9.35344C42.0127 10.8023 42.0127 12.2695 42.0127 13.7184C42.0127 13.9018 42.0494 13.9385 42.2328 13.9385C42.7646 13.9385 43.3148 13.9385 43.8467 13.9385C44.0118 13.9385 44.0668 13.9018 44.0484 13.7367C44.0484 13.4433 44.0484 13.1498 44.0484 12.8564C44.0484 12.8014 44.0484 12.7097 44.0484 12.673C44.0484 12.6363 44.1585 12.7464 44.2135 12.783C44.6903 13.4066 45.3506 13.8651 46.1025 14.0668C47.9732 14.5804 49.954 13.8651 51.0544 12.2695C51.9897 10.949 52.3198 9.29842 51.9714 7.72117ZM48.8535 11.5543C48.2667 12.0494 47.5331 12.2879 46.7811 12.2512C45.7908 12.1962 44.9104 11.6276 44.4886 10.7289C43.8284 9.57352 43.865 8.14299 44.5986 7.02425C45.3689 5.70376 47.0562 5.24526 48.395 6.01555C48.7435 6.21729 49.0369 6.49239 49.2754 6.82251C50.3208 8.28972 50.1374 10.3071 48.8535 11.5543Z" fill="#2072EF"/>
<path d="M80.5998 4.14456C80.4531 4.36464 80.3247 4.58473 80.233 4.84149C78.4173 9.00469 76.6017 13.1679 74.786 17.3678C74.731 17.5512 74.5476 17.6795 74.3642 17.6429H73.6673C73.5022 17.6429 73.4472 17.6429 73.5389 17.4411C74.1074 16.2307 74.6209 15.0019 75.2262 13.8098C75.4829 13.3513 75.4829 12.7827 75.2262 12.3242C74.0341 9.70161 72.8786 6.93226 71.6682 4.25461C71.5765 4.0712 71.5948 3.99784 71.8149 4.03452C71.8699 4.03452 71.9066 4.03452 71.9616 4.03452C72.2551 4.03452 72.6219 3.94282 72.8236 4.08954C73.0437 4.23626 73.062 4.58473 73.1721 4.84149L76.0515 11.664C76.0515 11.7007 76.0881 11.7557 76.1065 11.7924C76.1248 11.8291 76.1798 11.6823 76.1982 11.6273C77.1886 9.16975 78.1973 6.73052 79.1876 4.25461C79.2243 4.08954 79.3894 3.9795 79.5544 3.99784C79.9029 3.99784 80.2513 3.99784 80.5631 3.99784V4.14456H80.5998Z" fill="#2072EF"/>
<path d="M41.1686 7.8494C41.0402 6.78567 40.5817 5.79531 39.8298 5.02503C39.0045 4.21806 37.8857 3.74122 36.7303 3.72288C35.2264 3.57616 33.7409 4.16304 32.7505 5.30013C31.6501 6.54725 31.1733 8.23454 31.4484 9.86681C31.8702 12.6728 34.4745 14.6169 37.2988 14.1951C38.8027 13.975 40.1416 13.0763 40.9302 11.7742C41.0219 11.6275 41.0035 11.5724 40.8568 11.5174C40.38 11.2973 39.8848 11.0773 39.408 10.8205C39.2612 10.7471 39.1879 10.7655 39.0962 10.9122C38.4176 12.0126 37.1154 12.5445 35.8683 12.2143C34.6395 11.9576 33.7042 10.9489 33.5758 9.70175C33.5758 9.50001 33.5758 9.44499 33.7959 9.44499H40.9302C41.1319 9.44499 41.1869 9.38997 41.2053 9.20657C41.242 8.74806 41.2236 8.28956 41.1686 7.8494ZM38.8578 7.79438H33.8693C33.7592 7.79438 33.6492 7.79438 33.7042 7.64766C34.0893 6.14377 35.6116 5.22677 37.1154 5.59357C37.5739 5.70361 37.9958 5.94203 38.3442 6.25381C38.711 6.60227 38.9495 7.06077 39.0412 7.5743C39.0412 7.7577 39.0045 7.79438 38.8578 7.79438Z" fill="#2072EF"/>
<path d="M27.1933 13.9205H23.2869C23.1035 13.9205 23.0485 13.8655 23.0668 13.7004C23.0668 13.2419 23.0668 12.8017 23.0668 12.3432C23.0668 12.1965 23.1218 12.0498 23.2319 11.9398L28.3671 6.10761C28.4221 6.05259 28.5138 5.99758 28.4771 5.90587C28.4405 5.81417 28.3304 5.90587 28.2571 5.90587H23.4703C23.2869 5.90587 23.2135 5.85085 23.2319 5.66745C23.2319 5.19061 23.2319 4.69543 23.2319 4.21859C23.2319 4.09021 23.2319 4.01685 23.4153 4.01685H31.0264C31.1731 4.01685 31.2098 4.07187 31.1915 4.20025C31.1915 4.69543 31.1915 5.17227 31.1915 5.66745C31.1915 5.77749 31.1365 5.88754 31.0448 5.9609L25.9095 11.8114C25.8912 11.8297 25.8728 11.8481 25.8545 11.8664C25.8178 11.9214 25.7078 11.9764 25.7445 12.0315C25.7811 12.1048 25.8728 12.0315 25.9462 12.0315C27.6518 12.0315 29.3575 12.0315 31.0631 12.0315C31.2832 12.0315 31.3382 12.0865 31.3382 12.3066C31.3199 12.7467 31.3199 13.1685 31.3382 13.6087C31.3382 13.8655 31.2465 13.9022 31.0264 13.9022C29.7426 13.9205 28.4771 13.9205 27.1933 13.9205Z" fill="#2072EF"/>
<path d="M60.8838 5.374C59.765 4.12687 57.986 3.72339 56.4455 4.32862C55.5101 4.69542 54.7215 5.374 54.2263 6.23599C54.1896 6.30935 54.1713 6.40105 54.0796 6.43773C54.0796 6.34602 54.0796 6.27266 54.0796 6.1993C54.0796 5.66744 54.0796 5.11724 54.0796 4.58538C54.0796 4.38364 54.0246 4.3653 53.8228 4.34696H53.1259C52.9242 4.34696 52.8691 4.38364 52.8691 4.60372C52.8691 6.78619 52.8691 8.987 52.8691 11.1695V13.3519C52.8691 14.8191 52.8691 16.3047 52.8691 17.7719C52.8691 17.937 52.8691 18.0287 53.0892 17.992C53.3276 17.9736 53.5477 17.9736 53.7861 17.992C54.0429 17.992 54.0979 17.937 54.0979 17.6802C54.0979 15.7361 54.0979 13.8104 54.0979 11.8664C54.0979 11.8114 54.0979 11.738 54.0979 11.683C54.1896 11.683 54.1896 11.7747 54.208 11.8297C54.3547 12.1232 54.5381 12.3983 54.7398 12.655C56.1704 14.379 58.738 14.6174 60.4619 13.1869C60.4986 13.1685 60.5353 13.1319 60.5536 13.1135C62.7545 11.0411 62.9012 7.61149 60.8838 5.374ZM59.7834 12.2149C58.4995 13.4253 56.4638 13.3519 55.2717 12.0498L55.2534 12.0315C53.7861 10.4175 53.7128 7.97829 55.1066 6.291C56.2437 4.89716 58.2795 4.67708 59.6917 5.79582C60.0034 6.05258 60.2602 6.36437 60.4619 6.71283C60.9388 7.44643 61.1772 8.30841 61.1589 9.18874C61.1405 10.3442 60.6453 11.4446 59.7834 12.2149Z" fill="#2072EF"/>
<path d="M71.1176 10.1236C71.1176 9.09653 71.1542 8.05115 71.1176 7.04244C71.1176 5.81366 70.4023 4.69491 69.3019 4.18139C68.2198 3.66787 66.991 3.53949 65.8356 3.85127C64.9553 4.03467 64.1667 4.49317 63.5981 5.17175C63.5064 5.2818 63.5064 5.35515 63.5981 5.42851C63.6898 5.50188 64.02 5.72196 64.2217 5.88702C64.2951 5.94204 64.3317 5.96038 64.4234 5.88702C65.2121 4.98835 66.4225 4.54819 67.6146 4.74993C68.77 4.85997 69.7237 5.70362 69.9805 6.82236C70.0538 7.2992 70.0722 7.77605 70.0355 8.27123C70.0355 8.47297 69.9255 8.36293 69.8704 8.32625C69.3753 8.01447 68.8251 7.81273 68.2565 7.72103C67.1011 7.46426 65.8906 7.57431 64.7902 8.05115C63.3047 8.67471 62.6078 10.3803 63.2313 11.8475C63.3597 12.141 63.5248 12.4161 63.7265 12.6545C64.6435 13.6449 66.019 14.0484 67.3212 13.6999C68.3299 13.5165 69.2285 12.9846 69.9071 12.196C69.9071 12.1593 69.9621 12.0676 70.0355 12.1043C70.1089 12.141 70.0355 12.2143 70.0355 12.251C70.0355 12.5995 70.0355 12.9479 70.0355 13.2597C70.0355 13.4248 70.0355 13.4982 70.2556 13.4798C70.494 13.4615 70.7141 13.4615 70.9525 13.4798C71.1359 13.4798 71.1726 13.4248 71.1726 13.2597C71.1726 12.2143 71.1726 11.1873 71.1726 10.1419L71.1176 10.1236ZM65.7806 12.6728C64.9003 12.4894 64.2584 11.7192 64.2217 10.8388C64.1483 9.9035 64.7169 9.04151 65.6155 8.72973C65.8173 8.65637 66.0374 8.60135 66.2574 8.56467C66.5692 8.50965 66.8993 8.47297 67.2295 8.49131C68.1648 8.47297 69.0818 8.71139 69.8888 9.18823C69.9805 9.24325 70.0538 9.29827 70.0538 9.42665C70.0538 11.2973 68.5133 12.8196 66.6426 12.8196C66.3491 12.7829 66.0557 12.7462 65.7806 12.6728Z" fill="#2072EF"/>
<path d="M8.17527 0.421753C8.30365 0.421753 8.35867 0.495116 8.43203 0.550136L16.1715 7.90451C16.9602 8.61977 17.7305 9.37172 18.5007 10.1237C18.5924 10.1787 18.6291 10.3071 18.5741 10.4171C18.5741 10.4354 18.5558 10.4538 18.5374 10.4538C18.3724 10.6922 18.2256 10.9306 18.0789 11.1874C17.9322 11.4441 17.9322 11.3341 17.8222 11.1874C16.7034 10.1053 15.5663 9.04159 14.4292 7.95953C12.0267 5.66702 9.62414 3.39285 7.22158 1.11868C7.03818 0.953616 7.05652 0.861916 7.22158 0.715195C7.51503 0.550135 7.84515 0.458433 8.17527 0.421753Z" fill="#2072EF"/>
<path d="M5.77193 5.59375L5.90031 5.70379L15.6022 14.9105C15.7123 15.0206 15.7489 15.1123 15.6572 15.2406C15.4922 15.4791 15.3455 15.7175 15.1987 15.9742C15.052 16.231 15.052 16.1393 14.942 16.0109C13.9883 15.0939 13.0163 14.1769 12.0442 13.2416L5.05666 6.62079C4.83658 6.40071 4.83658 6.40071 5.05666 6.19897L5.66189 5.68545L5.77193 5.59375Z" fill="#2072EF"/>
<path d="M2.32415 14.1768C2.08573 14.1768 1.82897 14.1585 1.59055 14.1035C0.453462 13.81 -0.225121 12.673 0.0683206 11.5359C0.105001 11.3525 0.178361 11.1874 0.270061 11.0224C0.581843 10.5272 0.966984 10.0687 1.40715 9.68353C1.73727 9.33506 1.73727 9.33506 2.10407 9.68353L5.64371 13.0398C5.69873 13.0948 5.86379 13.1498 5.64371 13.2415C4.59832 13.7734 3.47958 14.1035 2.32415 14.1768Z" fill="#2072EF"/>
<path d="M17.1796 12.673L17.0329 12.8931C16.9045 13.0948 16.7761 13.2966 16.6661 13.5166C16.556 13.7367 16.501 13.6817 16.3726 13.5533L13.4199 10.7473L7.14758 4.76842C6.98252 4.6217 7.0192 4.56668 7.14758 4.41996C7.33098 4.23656 7.53272 4.08984 7.73446 3.94312C7.89952 3.85142 7.95454 3.83308 8.10126 3.94312L12.0077 7.66615L17.0329 12.4162C17.0879 12.5446 17.1613 12.5813 17.1796 12.673Z" fill="#2072EF"/>
<path d="M10.7792 0.495186C11.5678 0.586887 12.3197 0.806968 13.0533 1.10041C13.3468 1.30215 13.6219 1.52223 13.8419 1.79733C15.9144 3.74138 17.9318 5.70377 19.9859 7.64782C20.0959 7.75786 20.1326 7.83122 20.0409 7.9596C19.8758 8.19802 19.7291 8.45478 19.5824 8.71154C19.509 8.85827 19.454 8.85827 19.344 8.71154L15.4742 5.08021L10.8158 0.641908C10.7792 0.605228 10.7425 0.568545 10.7058 0.513525C10.6875 0.476845 10.7425 0.495186 10.7792 0.495186Z" fill="#2072EF"/>
<path d="M8.66923 12.1226C8.66923 12.1959 8.61421 12.1776 8.57753 12.1959C8.13737 12.2143 7.6972 12.2876 7.27538 12.4343C7.18368 12.4343 7.16534 12.4343 7.11032 12.361L2.8921 8.36284C2.78206 8.27114 2.78206 8.21612 2.8921 8.12442C3.11218 7.92268 3.3506 7.72094 3.58902 7.50086C3.68072 7.40916 3.73574 7.39082 3.82744 7.50086L8.59587 12.0492L8.66923 12.1226Z" fill="#2072EF"/>
</svg>
